<mxfile host="app.diagrams.net" modified="2021-12-30T01:42:24.948Z" agent="5.0 (Windows NT 10.0; Win64; x64) AppleWebKit/537.36 (KHTML, like Gecko) Chrome/88.0.4324.104 Safari/537.36" etag="ytrS6tPwMzqZFeFR_2RD" version="16.1.0" type="github">
  <diagram id="1puwQ60PruqutXqBWKcp" name="Page-1">
    <mxGraphModel dx="2046" dy="632" grid="0" gridSize="10" guides="1" tooltips="1" connect="1" arrows="1" fold="1" page="0" pageScale="1" pageWidth="827" pageHeight="1169" math="0" shadow="0">
      <root>
        <mxCell id="0" />
        <mxCell id="1" parent="0" />
        <mxCell id="jY6PQ6vpI0LhDQbDMkJX-2" value="Horizontal Tree Layout" style="swimlane;startSize=20;horizontal=0;childLayout=treeLayout;horizontalTree=1;resizable=0;containerType=tree;sketch=1;hachureGap=4;fontFamily=Architects Daughter;fontSource=https%3A%2F%2Ffonts.googleapis.com%2Fcss%3Ffamily%3DArchitects%2BDaughter;fontSize=20;" parent="1" vertex="1">
          <mxGeometry x="-421" y="141" width="760" height="312" as="geometry" />
        </mxCell>
        <mxCell id="jY6PQ6vpI0LhDQbDMkJX-3" value="Root" style="whiteSpace=wrap;html=1;sketch=1;hachureGap=4;fontFamily=Architects Daughter;fontSource=https%3A%2F%2Ffonts.googleapis.com%2Fcss%3Ffamily%3DArchitects%2BDaughter;fontSize=20;" parent="jY6PQ6vpI0LhDQbDMkJX-2" vertex="1">
          <mxGeometry x="40" y="156" width="100" height="40" as="geometry" />
        </mxCell>
        <mxCell id="jY6PQ6vpI0LhDQbDMkJX-4" value="Child 1" style="whiteSpace=wrap;html=1;sketch=1;hachureGap=4;fontFamily=Architects Daughter;fontSource=https%3A%2F%2Ffonts.googleapis.com%2Fcss%3Ffamily%3DArchitects%2BDaughter;fontSize=20;" parent="jY6PQ6vpI0LhDQbDMkJX-2" vertex="1">
          <mxGeometry x="190" y="60" width="100" height="40" as="geometry" />
        </mxCell>
        <mxCell id="jY6PQ6vpI0LhDQbDMkJX-5" value="" style="edgeStyle=elbowEdgeStyle;elbow=horizontal;html=1;rounded=0;sketch=1;hachureGap=4;fontFamily=Architects Daughter;fontSource=https%3A%2F%2Ffonts.googleapis.com%2Fcss%3Ffamily%3DArchitects%2BDaughter;fontSize=16;endArrow=open;startSize=14;endSize=14;sourcePerimeterSpacing=8;targetPerimeterSpacing=8;curved=1;" parent="jY6PQ6vpI0LhDQbDMkJX-2" source="jY6PQ6vpI0LhDQbDMkJX-3" target="jY6PQ6vpI0LhDQbDMkJX-4" edge="1">
          <mxGeometry relative="1" as="geometry" />
        </mxCell>
        <mxCell id="jY6PQ6vpI0LhDQbDMkJX-6" value="Child 2" style="whiteSpace=wrap;html=1;sketch=1;hachureGap=4;fontFamily=Architects Daughter;fontSource=https%3A%2F%2Ffonts.googleapis.com%2Fcss%3Ffamily%3DArchitects%2BDaughter;fontSize=20;" parent="jY6PQ6vpI0LhDQbDMkJX-2" vertex="1">
          <mxGeometry x="190" y="172" width="100" height="40" as="geometry" />
        </mxCell>
        <mxCell id="jY6PQ6vpI0LhDQbDMkJX-7" value="" style="edgeStyle=elbowEdgeStyle;elbow=horizontal;html=1;rounded=0;sketch=1;hachureGap=4;fontFamily=Architects Daughter;fontSource=https%3A%2F%2Ffonts.googleapis.com%2Fcss%3Ffamily%3DArchitects%2BDaughter;fontSize=16;endArrow=open;startSize=14;endSize=14;sourcePerimeterSpacing=8;targetPerimeterSpacing=8;curved=1;" parent="jY6PQ6vpI0LhDQbDMkJX-2" source="jY6PQ6vpI0LhDQbDMkJX-3" target="jY6PQ6vpI0LhDQbDMkJX-6" edge="1">
          <mxGeometry relative="1" as="geometry" />
        </mxCell>
        <mxCell id="jY6PQ6vpI0LhDQbDMkJX-8" value="" style="edgeStyle=elbowEdgeStyle;elbow=horizontal;html=1;rounded=0;sketch=1;hachureGap=4;fontFamily=Architects Daughter;fontSource=https%3A%2F%2Ffonts.googleapis.com%2Fcss%3Ffamily%3DArchitects%2BDaughter;fontSize=16;endArrow=open;startSize=14;endSize=14;sourcePerimeterSpacing=8;targetPerimeterSpacing=8;curved=1;" parent="jY6PQ6vpI0LhDQbDMkJX-2" source="jY6PQ6vpI0LhDQbDMkJX-4" target="jY6PQ6vpI0LhDQbDMkJX-9" edge="1">
          <mxGeometry relative="1" as="geometry">
            <mxPoint x="-273" y="85" as="sourcePoint" />
          </mxGeometry>
        </mxCell>
        <mxCell id="jY6PQ6vpI0LhDQbDMkJX-9" value="Child 1" style="whiteSpace=wrap;html=1;sketch=1;hachureGap=4;fontFamily=Architects Daughter;fontSource=https%3A%2F%2Ffonts.googleapis.com%2Fcss%3Ffamily%3DArchitects%2BDaughter;fontSize=20;" parent="jY6PQ6vpI0LhDQbDMkJX-2" vertex="1">
          <mxGeometry x="340" y="20" width="100" height="40" as="geometry" />
        </mxCell>
        <mxCell id="jY6PQ6vpI0LhDQbDMkJX-10" value="" style="edgeStyle=elbowEdgeStyle;elbow=horizontal;html=1;rounded=0;sketch=1;hachureGap=4;fontFamily=Architects Daughter;fontSource=https%3A%2F%2Ffonts.googleapis.com%2Fcss%3Ffamily%3DArchitects%2BDaughter;fontSize=16;endArrow=open;startSize=14;endSize=14;sourcePerimeterSpacing=8;targetPerimeterSpacing=8;curved=1;" parent="jY6PQ6vpI0LhDQbDMkJX-2" source="jY6PQ6vpI0LhDQbDMkJX-4" target="jY6PQ6vpI0LhDQbDMkJX-11" edge="1">
          <mxGeometry relative="1" as="geometry">
            <mxPoint x="-123" y="45" as="sourcePoint" />
          </mxGeometry>
        </mxCell>
        <mxCell id="jY6PQ6vpI0LhDQbDMkJX-11" value="Child 1" style="whiteSpace=wrap;html=1;sketch=1;hachureGap=4;fontFamily=Architects Daughter;fontSource=https%3A%2F%2Ffonts.googleapis.com%2Fcss%3Ffamily%3DArchitects%2BDaughter;fontSize=20;" parent="jY6PQ6vpI0LhDQbDMkJX-2" vertex="1">
          <mxGeometry x="340" y="100" width="100" height="40" as="geometry" />
        </mxCell>
        <mxCell id="jY6PQ6vpI0LhDQbDMkJX-12" value="" style="edgeStyle=elbowEdgeStyle;elbow=horizontal;html=1;rounded=0;sketch=1;hachureGap=4;fontFamily=Architects Daughter;fontSource=https%3A%2F%2Ffonts.googleapis.com%2Fcss%3Ffamily%3DArchitects%2BDaughter;fontSize=16;endArrow=open;startSize=14;endSize=14;sourcePerimeterSpacing=8;targetPerimeterSpacing=8;curved=1;" parent="jY6PQ6vpI0LhDQbDMkJX-2" source="jY6PQ6vpI0LhDQbDMkJX-3" target="jY6PQ6vpI0LhDQbDMkJX-13" edge="1">
          <mxGeometry relative="1" as="geometry">
            <mxPoint x="-273" y="181" as="sourcePoint" />
          </mxGeometry>
        </mxCell>
        <mxCell id="jY6PQ6vpI0LhDQbDMkJX-13" value="Child 2" style="whiteSpace=wrap;html=1;sketch=1;hachureGap=4;fontFamily=Architects Daughter;fontSource=https%3A%2F%2Ffonts.googleapis.com%2Fcss%3Ffamily%3DArchitects%2BDaughter;fontSize=20;" parent="jY6PQ6vpI0LhDQbDMkJX-2" vertex="1">
          <mxGeometry x="190" y="252" width="100" height="40" as="geometry" />
        </mxCell>
        <mxCell id="jY6PQ6vpI0LhDQbDMkJX-14" value="" style="edgeStyle=elbowEdgeStyle;elbow=horizontal;html=1;rounded=0;sketch=1;hachureGap=4;fontFamily=Architects Daughter;fontSource=https%3A%2F%2Ffonts.googleapis.com%2Fcss%3Ffamily%3DArchitects%2BDaughter;fontSize=16;endArrow=open;startSize=14;endSize=14;sourcePerimeterSpacing=8;targetPerimeterSpacing=8;curved=1;" parent="jY6PQ6vpI0LhDQbDMkJX-2" source="jY6PQ6vpI0LhDQbDMkJX-9" target="jY6PQ6vpI0LhDQbDMkJX-15" edge="1">
          <mxGeometry relative="1" as="geometry">
            <mxPoint x="-123" y="221" as="sourcePoint" />
          </mxGeometry>
        </mxCell>
        <mxCell id="jY6PQ6vpI0LhDQbDMkJX-15" value="Child 1" style="whiteSpace=wrap;html=1;sketch=1;hachureGap=4;fontFamily=Architects Daughter;fontSource=https%3A%2F%2Ffonts.googleapis.com%2Fcss%3Ffamily%3DArchitects%2BDaughter;fontSize=20;" parent="jY6PQ6vpI0LhDQbDMkJX-2" vertex="1">
          <mxGeometry x="490" y="20" width="100" height="40" as="geometry" />
        </mxCell>
        <mxCell id="jY6PQ6vpI0LhDQbDMkJX-16" value="" style="edgeStyle=elbowEdgeStyle;elbow=horizontal;html=1;rounded=0;sketch=1;hachureGap=4;fontFamily=Architects Daughter;fontSource=https%3A%2F%2Ffonts.googleapis.com%2Fcss%3Ffamily%3DArchitects%2BDaughter;fontSize=16;endArrow=open;startSize=14;endSize=14;sourcePerimeterSpacing=8;targetPerimeterSpacing=8;curved=1;" parent="jY6PQ6vpI0LhDQbDMkJX-2" source="jY6PQ6vpI0LhDQbDMkJX-15" target="jY6PQ6vpI0LhDQbDMkJX-17" edge="1">
          <mxGeometry relative="1" as="geometry">
            <mxPoint x="27" y="181" as="sourcePoint" />
          </mxGeometry>
        </mxCell>
        <mxCell id="jY6PQ6vpI0LhDQbDMkJX-17" value="Child 1" style="whiteSpace=wrap;html=1;sketch=1;hachureGap=4;fontFamily=Architects Daughter;fontSource=https%3A%2F%2Ffonts.googleapis.com%2Fcss%3Ffamily%3DArchitects%2BDaughter;fontSize=20;" parent="jY6PQ6vpI0LhDQbDMkJX-2" vertex="1">
          <mxGeometry x="640" y="20" width="100" height="40" as="geometry" />
        </mxCell>
      </root>
    </mxGraphModel>
  </diagram>
</mxfile>
